<mxfile host="app.diagrams.net" modified="2023-11-24T05:08:55.405Z" agent="Mozilla/5.0 (Windows NT 10.0; Win64; x64) AppleWebKit/537.36 (KHTML, like Gecko) Chrome/119.0.0.0 Safari/537.36 Edg/119.0.0.0" etag="YRazBhsS3ZJl5CJel6ct" version="22.1.3" type="github">
  <diagram name="Page-1" id="K3dOlEwqnWuZSXloKcQ0">
    <mxGraphModel dx="1042" dy="535" grid="1" gridSize="10" guides="1" tooltips="1" connect="1" arrows="1" fold="1" page="1" pageScale="1" pageWidth="850" pageHeight="1100" math="0" shadow="0">
      <root>
        <mxCell id="0" />
        <mxCell id="1" parent="0" />
        <mxCell id="91yJGced5cuJ7klKDWTW-1" value="PHONG" style="rounded=0;whiteSpace=wrap;html=1;" parent="1" vertex="1">
          <mxGeometry x="140" y="110" width="100" height="40" as="geometry" />
        </mxCell>
        <mxCell id="91yJGced5cuJ7klKDWTW-2" value="TIENNGHI" style="rounded=0;whiteSpace=wrap;html=1;" parent="1" vertex="1">
          <mxGeometry x="490" y="120" width="100" height="40" as="geometry" />
        </mxCell>
        <mxCell id="91yJGced5cuJ7klKDWTW-3" value="HOPDONGTHUE" style="rounded=0;whiteSpace=wrap;html=1;" parent="1" vertex="1">
          <mxGeometry x="580" y="430" width="100" height="40" as="geometry" />
        </mxCell>
        <mxCell id="91yJGced5cuJ7klKDWTW-4" value="KHACHHANG" style="rounded=0;whiteSpace=wrap;html=1;" parent="1" vertex="1">
          <mxGeometry x="120" y="380" width="100" height="40" as="geometry" />
        </mxCell>
        <mxCell id="91yJGced5cuJ7klKDWTW-6" value="LICHSUDV" style="rounded=0;whiteSpace=wrap;html=1;" parent="1" vertex="1">
          <mxGeometry x="160" y="565" width="100" height="40" as="geometry" />
        </mxCell>
        <mxCell id="91yJGced5cuJ7klKDWTW-7" value="&lt;u&gt;SOPHONG&lt;/u&gt;" style="ellipse;whiteSpace=wrap;html=1;" parent="1" vertex="1">
          <mxGeometry x="60" y="40" width="70" height="30" as="geometry" />
        </mxCell>
        <mxCell id="91yJGced5cuJ7klKDWTW-8" value="SONGUOI_O" style="ellipse;whiteSpace=wrap;html=1;" parent="1" vertex="1">
          <mxGeometry x="140" y="40" width="100" height="30" as="geometry" />
        </mxCell>
        <mxCell id="91yJGced5cuJ7klKDWTW-9" value="DONGIA" style="ellipse;whiteSpace=wrap;html=1;" parent="1" vertex="1">
          <mxGeometry x="250" y="40" width="70" height="30" as="geometry" />
        </mxCell>
        <mxCell id="91yJGced5cuJ7klKDWTW-10" value="" style="endArrow=none;html=1;rounded=0;entryX=0.5;entryY=1;entryDx=0;entryDy=0;exitX=0.25;exitY=0;exitDx=0;exitDy=0;" parent="1" source="91yJGced5cuJ7klKDWTW-1" target="91yJGced5cuJ7klKDWTW-7" edge="1">
          <mxGeometry width="50" height="50" relative="1" as="geometry">
            <mxPoint x="-30" y="190" as="sourcePoint" />
            <mxPoint x="70" y="100" as="targetPoint" />
          </mxGeometry>
        </mxCell>
        <mxCell id="91yJGced5cuJ7klKDWTW-11" value="" style="endArrow=none;html=1;rounded=0;entryX=0.5;entryY=1;entryDx=0;entryDy=0;exitX=0.5;exitY=0;exitDx=0;exitDy=0;" parent="1" source="91yJGced5cuJ7klKDWTW-1" target="91yJGced5cuJ7klKDWTW-8" edge="1">
          <mxGeometry width="50" height="50" relative="1" as="geometry">
            <mxPoint x="190" y="100" as="sourcePoint" />
            <mxPoint x="200" y="90" as="targetPoint" />
          </mxGeometry>
        </mxCell>
        <mxCell id="91yJGced5cuJ7klKDWTW-13" value="" style="endArrow=none;html=1;rounded=0;entryX=0.5;entryY=1;entryDx=0;entryDy=0;exitX=0.75;exitY=0;exitDx=0;exitDy=0;" parent="1" source="91yJGced5cuJ7klKDWTW-1" target="91yJGced5cuJ7klKDWTW-9" edge="1">
          <mxGeometry width="50" height="50" relative="1" as="geometry">
            <mxPoint x="300" y="180" as="sourcePoint" />
            <mxPoint x="290" y="80" as="targetPoint" />
          </mxGeometry>
        </mxCell>
        <mxCell id="91yJGced5cuJ7klKDWTW-14" value="LOAITIENNGHI" style="ellipse;whiteSpace=wrap;html=1;" parent="1" vertex="1">
          <mxGeometry x="380" y="40" width="100" height="40" as="geometry" />
        </mxCell>
        <mxCell id="91yJGced5cuJ7klKDWTW-15" value="SOTT" style="ellipse;whiteSpace=wrap;html=1;" parent="1" vertex="1">
          <mxGeometry x="490" y="40" width="100" height="30" as="geometry" />
        </mxCell>
        <mxCell id="91yJGced5cuJ7klKDWTW-16" value="TRANGTHAI" style="ellipse;whiteSpace=wrap;html=1;" parent="1" vertex="1">
          <mxGeometry x="600" y="40" width="90" height="30" as="geometry" />
        </mxCell>
        <mxCell id="91yJGced5cuJ7klKDWTW-17" value="" style="endArrow=none;html=1;rounded=0;entryX=0.5;entryY=1;entryDx=0;entryDy=0;exitX=0.25;exitY=0;exitDx=0;exitDy=0;" parent="1" source="91yJGced5cuJ7klKDWTW-2" target="91yJGced5cuJ7klKDWTW-14" edge="1">
          <mxGeometry width="50" height="50" relative="1" as="geometry">
            <mxPoint x="410" y="150" as="sourcePoint" />
            <mxPoint x="460" y="100" as="targetPoint" />
          </mxGeometry>
        </mxCell>
        <mxCell id="91yJGced5cuJ7klKDWTW-18" value="" style="endArrow=none;html=1;rounded=0;entryX=0.5;entryY=1;entryDx=0;entryDy=0;exitX=0.5;exitY=0;exitDx=0;exitDy=0;" parent="1" source="91yJGced5cuJ7klKDWTW-2" target="91yJGced5cuJ7klKDWTW-15" edge="1">
          <mxGeometry width="50" height="50" relative="1" as="geometry">
            <mxPoint x="630" y="150" as="sourcePoint" />
            <mxPoint x="680" y="100" as="targetPoint" />
          </mxGeometry>
        </mxCell>
        <mxCell id="91yJGced5cuJ7klKDWTW-19" value="" style="endArrow=none;html=1;rounded=0;entryX=0.5;entryY=1;entryDx=0;entryDy=0;exitX=0.75;exitY=0;exitDx=0;exitDy=0;" parent="1" source="91yJGced5cuJ7klKDWTW-2" target="91yJGced5cuJ7klKDWTW-16" edge="1">
          <mxGeometry width="50" height="50" relative="1" as="geometry">
            <mxPoint x="600" y="160" as="sourcePoint" />
            <mxPoint x="650" y="110" as="targetPoint" />
          </mxGeometry>
        </mxCell>
        <mxCell id="91yJGced5cuJ7klKDWTW-20" value="&lt;u&gt;SOCMND&lt;/u&gt;" style="ellipse;whiteSpace=wrap;html=1;" parent="1" vertex="1">
          <mxGeometry x="20" y="320" width="70" height="30" as="geometry" />
        </mxCell>
        <mxCell id="91yJGced5cuJ7klKDWTW-21" value="HOTEN" style="ellipse;whiteSpace=wrap;html=1;" parent="1" vertex="1">
          <mxGeometry x="100" y="320" width="100" height="30" as="geometry" />
        </mxCell>
        <mxCell id="91yJGced5cuJ7klKDWTW-22" value="NGAYSINH" style="ellipse;whiteSpace=wrap;html=1;" parent="1" vertex="1">
          <mxGeometry x="210" y="320" width="70" height="30" as="geometry" />
        </mxCell>
        <mxCell id="91yJGced5cuJ7klKDWTW-24" value="GIOITINH" style="ellipse;whiteSpace=wrap;html=1;" parent="1" vertex="1">
          <mxGeometry x="5" y="380" width="100" height="30" as="geometry" />
        </mxCell>
        <mxCell id="91yJGced5cuJ7klKDWTW-25" value="DIACHI" style="ellipse;whiteSpace=wrap;html=1;" parent="1" vertex="1">
          <mxGeometry x="30" y="430" width="70" height="30" as="geometry" />
        </mxCell>
        <mxCell id="91yJGced5cuJ7klKDWTW-26" value="SDT" style="ellipse;whiteSpace=wrap;html=1;" parent="1" vertex="1">
          <mxGeometry x="105" y="480" width="70" height="30" as="geometry" />
        </mxCell>
        <mxCell id="91yJGced5cuJ7klKDWTW-27" value="&lt;u&gt;SOHOPDONG&lt;/u&gt;" style="ellipse;whiteSpace=wrap;html=1;" parent="1" vertex="1">
          <mxGeometry x="580" y="350" width="85" height="40" as="geometry" />
        </mxCell>
        <mxCell id="91yJGced5cuJ7klKDWTW-28" value="NGAYTHUE" style="ellipse;whiteSpace=wrap;html=1;" parent="1" vertex="1">
          <mxGeometry x="690" y="350" width="100" height="30" as="geometry" />
        </mxCell>
        <mxCell id="91yJGced5cuJ7klKDWTW-29" value="NGAYDUKIEN&lt;br&gt;KETTHUC" style="ellipse;whiteSpace=wrap;html=1;" parent="1" vertex="1">
          <mxGeometry x="740" y="390" width="95" height="60" as="geometry" />
        </mxCell>
        <mxCell id="91yJGced5cuJ7klKDWTW-30" value="NGAYTRAPHONG" style="ellipse;whiteSpace=wrap;html=1;" parent="1" vertex="1">
          <mxGeometry x="735" y="480" width="100" height="30" as="geometry" />
        </mxCell>
        <mxCell id="91yJGced5cuJ7klKDWTW-33" value="" style="endArrow=none;html=1;rounded=0;entryX=0.5;entryY=1;entryDx=0;entryDy=0;exitX=0.75;exitY=0;exitDx=0;exitDy=0;" parent="1" source="91yJGced5cuJ7klKDWTW-4" target="91yJGced5cuJ7klKDWTW-22" edge="1">
          <mxGeometry width="50" height="50" relative="1" as="geometry">
            <mxPoint x="230" y="460" as="sourcePoint" />
            <mxPoint x="245" y="360" as="targetPoint" />
          </mxGeometry>
        </mxCell>
        <mxCell id="91yJGced5cuJ7klKDWTW-34" value="" style="endArrow=none;html=1;rounded=0;entryX=0.436;entryY=1.08;entryDx=0;entryDy=0;entryPerimeter=0;exitX=0.5;exitY=0;exitDx=0;exitDy=0;" parent="1" source="91yJGced5cuJ7klKDWTW-4" target="91yJGced5cuJ7klKDWTW-21" edge="1">
          <mxGeometry width="50" height="50" relative="1" as="geometry">
            <mxPoint x="140" y="400" as="sourcePoint" />
            <mxPoint x="190" y="350" as="targetPoint" />
          </mxGeometry>
        </mxCell>
        <mxCell id="91yJGced5cuJ7klKDWTW-35" value="" style="endArrow=none;html=1;rounded=0;entryX=0.737;entryY=1.027;entryDx=0;entryDy=0;entryPerimeter=0;exitX=0;exitY=0;exitDx=0;exitDy=0;" parent="1" source="91yJGced5cuJ7klKDWTW-4" target="91yJGced5cuJ7klKDWTW-20" edge="1">
          <mxGeometry width="50" height="50" relative="1" as="geometry">
            <mxPoint x="90" y="460" as="sourcePoint" />
            <mxPoint x="140" y="410" as="targetPoint" />
          </mxGeometry>
        </mxCell>
        <mxCell id="91yJGced5cuJ7klKDWTW-36" value="" style="endArrow=none;html=1;rounded=0;entryX=0;entryY=0.5;entryDx=0;entryDy=0;exitX=1;exitY=0.5;exitDx=0;exitDy=0;" parent="1" source="91yJGced5cuJ7klKDWTW-24" target="91yJGced5cuJ7klKDWTW-4" edge="1">
          <mxGeometry width="50" height="50" relative="1" as="geometry">
            <mxPoint x="120" y="490" as="sourcePoint" />
            <mxPoint x="170" y="440" as="targetPoint" />
          </mxGeometry>
        </mxCell>
        <mxCell id="91yJGced5cuJ7klKDWTW-37" value="" style="endArrow=none;html=1;rounded=0;exitX=1;exitY=0.5;exitDx=0;exitDy=0;" parent="1" source="91yJGced5cuJ7klKDWTW-25" edge="1">
          <mxGeometry width="50" height="50" relative="1" as="geometry">
            <mxPoint x="90" y="480" as="sourcePoint" />
            <mxPoint x="160" y="420" as="targetPoint" />
          </mxGeometry>
        </mxCell>
        <mxCell id="91yJGced5cuJ7klKDWTW-38" value="" style="endArrow=none;html=1;rounded=0;exitX=0.5;exitY=0;exitDx=0;exitDy=0;entryX=0.5;entryY=1;entryDx=0;entryDy=0;" parent="1" source="91yJGced5cuJ7klKDWTW-26" target="91yJGced5cuJ7klKDWTW-4" edge="1">
          <mxGeometry width="50" height="50" relative="1" as="geometry">
            <mxPoint x="280" y="520" as="sourcePoint" />
            <mxPoint x="330" y="470" as="targetPoint" />
          </mxGeometry>
        </mxCell>
        <mxCell id="91yJGced5cuJ7klKDWTW-39" value="" style="endArrow=none;html=1;rounded=0;entryX=0.5;entryY=1;entryDx=0;entryDy=0;exitX=0.5;exitY=0;exitDx=0;exitDy=0;" parent="1" source="91yJGced5cuJ7klKDWTW-3" target="91yJGced5cuJ7klKDWTW-27" edge="1">
          <mxGeometry width="50" height="50" relative="1" as="geometry">
            <mxPoint x="630" y="440" as="sourcePoint" />
            <mxPoint x="680" y="390" as="targetPoint" />
          </mxGeometry>
        </mxCell>
        <mxCell id="91yJGced5cuJ7klKDWTW-40" value="" style="endArrow=none;html=1;rounded=0;entryX=0;entryY=1;entryDx=0;entryDy=0;exitX=0.75;exitY=0;exitDx=0;exitDy=0;" parent="1" source="91yJGced5cuJ7klKDWTW-3" target="91yJGced5cuJ7klKDWTW-28" edge="1">
          <mxGeometry width="50" height="50" relative="1" as="geometry">
            <mxPoint x="690" y="450" as="sourcePoint" />
            <mxPoint x="740" y="400" as="targetPoint" />
          </mxGeometry>
        </mxCell>
        <mxCell id="91yJGced5cuJ7klKDWTW-41" value="" style="endArrow=none;html=1;rounded=0;entryX=0;entryY=0.5;entryDx=0;entryDy=0;exitX=1;exitY=0.5;exitDx=0;exitDy=0;" parent="1" source="91yJGced5cuJ7klKDWTW-3" target="91yJGced5cuJ7klKDWTW-29" edge="1">
          <mxGeometry width="50" height="50" relative="1" as="geometry">
            <mxPoint x="690" y="500" as="sourcePoint" />
            <mxPoint x="740" y="450" as="targetPoint" />
          </mxGeometry>
        </mxCell>
        <mxCell id="91yJGced5cuJ7klKDWTW-42" value="" style="endArrow=none;html=1;rounded=0;entryX=0;entryY=0.5;entryDx=0;entryDy=0;exitX=1;exitY=1;exitDx=0;exitDy=0;" parent="1" source="91yJGced5cuJ7klKDWTW-3" target="91yJGced5cuJ7klKDWTW-30" edge="1">
          <mxGeometry width="50" height="50" relative="1" as="geometry">
            <mxPoint x="680" y="540" as="sourcePoint" />
            <mxPoint x="730" y="490" as="targetPoint" />
          </mxGeometry>
        </mxCell>
        <mxCell id="91yJGced5cuJ7klKDWTW-50" value="NGAYSD" style="ellipse;whiteSpace=wrap;html=1;" parent="1" vertex="1">
          <mxGeometry x="60" y="655" width="70" height="30" as="geometry" />
        </mxCell>
        <mxCell id="91yJGced5cuJ7klKDWTW-51" value="SOTIENSUDUNG" style="ellipse;whiteSpace=wrap;html=1;" parent="1" vertex="1">
          <mxGeometry x="210" y="655" width="120" height="30" as="geometry" />
        </mxCell>
        <mxCell id="91yJGced5cuJ7klKDWTW-53" value="" style="endArrow=none;html=1;rounded=0;exitX=0.646;exitY=0.107;exitDx=0;exitDy=0;exitPerimeter=0;entryX=0.25;entryY=1;entryDx=0;entryDy=0;" parent="1" source="91yJGced5cuJ7klKDWTW-50" target="91yJGced5cuJ7klKDWTW-6" edge="1">
          <mxGeometry width="50" height="50" relative="1" as="geometry">
            <mxPoint x="130" y="685" as="sourcePoint" />
            <mxPoint x="180" y="635" as="targetPoint" />
          </mxGeometry>
        </mxCell>
        <mxCell id="91yJGced5cuJ7klKDWTW-54" value="" style="endArrow=none;html=1;rounded=0;entryX=0.75;entryY=1;entryDx=0;entryDy=0;exitX=0.5;exitY=0;exitDx=0;exitDy=0;" parent="1" source="91yJGced5cuJ7klKDWTW-51" target="91yJGced5cuJ7klKDWTW-6" edge="1">
          <mxGeometry width="50" height="50" relative="1" as="geometry">
            <mxPoint x="190" y="675" as="sourcePoint" />
            <mxPoint x="240" y="625" as="targetPoint" />
          </mxGeometry>
        </mxCell>
        <mxCell id="91yJGced5cuJ7klKDWTW-55" value="THUÊ" style="rhombus;whiteSpace=wrap;html=1;" parent="1" vertex="1">
          <mxGeometry x="320" y="150" width="80" height="60" as="geometry" />
        </mxCell>
        <mxCell id="91yJGced5cuJ7klKDWTW-58" value="" style="edgeStyle=entityRelationEdgeStyle;fontSize=12;html=1;endArrow=ERzeroToMany;endFill=1;rounded=0;exitX=0;exitY=0.5;exitDx=0;exitDy=0;" parent="1" source="91yJGced5cuJ7klKDWTW-55" target="91yJGced5cuJ7klKDWTW-1" edge="1">
          <mxGeometry width="100" height="100" relative="1" as="geometry">
            <mxPoint x="170" y="280" as="sourcePoint" />
            <mxPoint x="270" y="180" as="targetPoint" />
          </mxGeometry>
        </mxCell>
        <mxCell id="91yJGced5cuJ7klKDWTW-60" value="" style="edgeStyle=entityRelationEdgeStyle;fontSize=12;html=1;endArrow=ERzeroToMany;endFill=1;rounded=0;entryX=0;entryY=0.5;entryDx=0;entryDy=0;exitX=1;exitY=0.5;exitDx=0;exitDy=0;" parent="1" source="91yJGced5cuJ7klKDWTW-55" target="91yJGced5cuJ7klKDWTW-2" edge="1">
          <mxGeometry width="100" height="100" relative="1" as="geometry">
            <mxPoint x="370" y="250" as="sourcePoint" />
            <mxPoint x="470" y="150" as="targetPoint" />
          </mxGeometry>
        </mxCell>
        <mxCell id="91yJGced5cuJ7klKDWTW-61" value="YÊU CẦU" style="rhombus;whiteSpace=wrap;html=1;" parent="1" vertex="1">
          <mxGeometry x="420" y="260" width="80" height="60" as="geometry" />
        </mxCell>
        <mxCell id="91yJGced5cuJ7klKDWTW-62" value="SLTHUE" style="strokeWidth=2;html=1;shape=mxgraph.flowchart.start_2;whiteSpace=wrap;" parent="1" vertex="1">
          <mxGeometry x="360" y="210" width="70" height="40" as="geometry" />
        </mxCell>
        <mxCell id="91yJGced5cuJ7klKDWTW-63" value="" style="endArrow=none;html=1;rounded=0;entryX=0.5;entryY=1;entryDx=0;entryDy=0;exitX=0.5;exitY=0;exitDx=0;exitDy=0;exitPerimeter=0;" parent="1" source="91yJGced5cuJ7klKDWTW-62" target="91yJGced5cuJ7klKDWTW-55" edge="1">
          <mxGeometry width="50" height="50" relative="1" as="geometry">
            <mxPoint x="320" y="270" as="sourcePoint" />
            <mxPoint x="370" y="220" as="targetPoint" />
          </mxGeometry>
        </mxCell>
        <mxCell id="91yJGced5cuJ7klKDWTW-64" value="" style="edgeStyle=entityRelationEdgeStyle;fontSize=12;html=1;endArrow=ERzeroToMany;endFill=1;rounded=0;entryX=1;entryY=1;entryDx=0;entryDy=0;exitX=0;exitY=0.5;exitDx=0;exitDy=0;" parent="1" source="91yJGced5cuJ7klKDWTW-61" target="91yJGced5cuJ7klKDWTW-1" edge="1">
          <mxGeometry width="100" height="100" relative="1" as="geometry">
            <mxPoint x="310" y="300" as="sourcePoint" />
            <mxPoint x="190" y="240" as="targetPoint" />
            <Array as="points">
              <mxPoint x="260" y="220" />
              <mxPoint x="260" y="220" />
              <mxPoint x="260" y="230" />
            </Array>
          </mxGeometry>
        </mxCell>
        <mxCell id="91yJGced5cuJ7klKDWTW-66" value="" style="edgeStyle=entityRelationEdgeStyle;fontSize=12;html=1;endArrow=ERzeroToMany;endFill=1;rounded=0;entryX=0;entryY=0.5;entryDx=0;entryDy=0;exitX=1;exitY=0.5;exitDx=0;exitDy=0;" parent="1" source="91yJGced5cuJ7klKDWTW-61" target="91yJGced5cuJ7klKDWTW-3" edge="1">
          <mxGeometry width="100" height="100" relative="1" as="geometry">
            <mxPoint x="460" y="320" as="sourcePoint" />
            <mxPoint x="550" y="280" as="targetPoint" />
            <Array as="points">
              <mxPoint x="520" y="400" />
            </Array>
          </mxGeometry>
        </mxCell>
        <mxCell id="91yJGced5cuJ7klKDWTW-67" value="SLHOPDONG" style="strokeWidth=2;html=1;shape=mxgraph.flowchart.start_2;whiteSpace=wrap;" parent="1" vertex="1">
          <mxGeometry x="480" y="200" width="90" height="40" as="geometry" />
        </mxCell>
        <mxCell id="91yJGced5cuJ7klKDWTW-69" style="edgeStyle=orthogonalEdgeStyle;rounded=0;orthogonalLoop=1;jettySize=auto;html=1;exitX=0.5;exitY=1;exitDx=0;exitDy=0;exitPerimeter=0;" parent="1" source="91yJGced5cuJ7klKDWTW-67" target="91yJGced5cuJ7klKDWTW-67" edge="1">
          <mxGeometry relative="1" as="geometry" />
        </mxCell>
        <mxCell id="91yJGced5cuJ7klKDWTW-70" value="" style="endArrow=none;html=1;rounded=0;entryX=0.431;entryY=1.04;entryDx=0;entryDy=0;entryPerimeter=0;exitX=0.5;exitY=0;exitDx=0;exitDy=0;" parent="1" source="91yJGced5cuJ7klKDWTW-61" target="91yJGced5cuJ7klKDWTW-67" edge="1">
          <mxGeometry width="50" height="50" relative="1" as="geometry">
            <mxPoint x="440" y="350" as="sourcePoint" />
            <mxPoint x="490" y="300" as="targetPoint" />
          </mxGeometry>
        </mxCell>
        <mxCell id="91yJGced5cuJ7klKDWTW-71" value="DICHVU" style="rounded=0;whiteSpace=wrap;html=1;" parent="1" vertex="1">
          <mxGeometry x="290" y="495" width="100" height="40" as="geometry" />
        </mxCell>
        <mxCell id="91yJGced5cuJ7klKDWTW-72" value="&lt;u&gt;MADV&lt;/u&gt;" style="ellipse;whiteSpace=wrap;html=1;" parent="1" vertex="1">
          <mxGeometry x="440" y="425" width="70" height="30" as="geometry" />
        </mxCell>
        <mxCell id="91yJGced5cuJ7klKDWTW-73" value="TENDV" style="ellipse;whiteSpace=wrap;html=1;" parent="1" vertex="1">
          <mxGeometry x="440" y="475" width="100" height="30" as="geometry" />
        </mxCell>
        <mxCell id="91yJGced5cuJ7klKDWTW-74" value="GIADV" style="ellipse;whiteSpace=wrap;html=1;" parent="1" vertex="1">
          <mxGeometry x="455" y="535" width="70" height="30" as="geometry" />
        </mxCell>
        <mxCell id="91yJGced5cuJ7klKDWTW-75" value="" style="endArrow=none;html=1;rounded=0;entryX=0;entryY=0.5;entryDx=0;entryDy=0;exitX=1;exitY=0;exitDx=0;exitDy=0;" parent="1" source="91yJGced5cuJ7klKDWTW-71" target="91yJGced5cuJ7klKDWTW-72" edge="1">
          <mxGeometry width="50" height="50" relative="1" as="geometry">
            <mxPoint x="370" y="535" as="sourcePoint" />
            <mxPoint x="420" y="485" as="targetPoint" />
          </mxGeometry>
        </mxCell>
        <mxCell id="91yJGced5cuJ7klKDWTW-76" value="" style="endArrow=none;html=1;rounded=0;entryX=0;entryY=0.5;entryDx=0;entryDy=0;exitX=1;exitY=0.5;exitDx=0;exitDy=0;" parent="1" source="91yJGced5cuJ7klKDWTW-71" target="91yJGced5cuJ7klKDWTW-73" edge="1">
          <mxGeometry width="50" height="50" relative="1" as="geometry">
            <mxPoint x="380" y="595" as="sourcePoint" />
            <mxPoint x="430" y="515" as="targetPoint" />
          </mxGeometry>
        </mxCell>
        <mxCell id="91yJGced5cuJ7klKDWTW-77" value="" style="endArrow=none;html=1;rounded=0;entryX=0;entryY=0.5;entryDx=0;entryDy=0;exitX=1;exitY=1;exitDx=0;exitDy=0;" parent="1" source="91yJGced5cuJ7klKDWTW-71" target="91yJGced5cuJ7klKDWTW-74" edge="1">
          <mxGeometry width="50" height="50" relative="1" as="geometry">
            <mxPoint x="400" y="545" as="sourcePoint" />
            <mxPoint x="440" y="555" as="targetPoint" />
          </mxGeometry>
        </mxCell>
        <mxCell id="91yJGced5cuJ7klKDWTW-78" value="YÊU CẦU" style="rhombus;whiteSpace=wrap;html=1;" parent="1" vertex="1">
          <mxGeometry x="280" y="370" width="80" height="60" as="geometry" />
        </mxCell>
        <mxCell id="91yJGced5cuJ7klKDWTW-79" value="" style="edgeStyle=entityRelationEdgeStyle;fontSize=12;html=1;endArrow=ERzeroToMany;endFill=1;rounded=0;exitX=0;exitY=0.5;exitDx=0;exitDy=0;entryX=1;entryY=0.5;entryDx=0;entryDy=0;" parent="1" source="91yJGced5cuJ7klKDWTW-78" target="91yJGced5cuJ7klKDWTW-4" edge="1">
          <mxGeometry width="100" height="100" relative="1" as="geometry">
            <mxPoint x="340" y="310" as="sourcePoint" />
            <mxPoint x="260" y="260" as="targetPoint" />
          </mxGeometry>
        </mxCell>
        <mxCell id="91yJGced5cuJ7klKDWTW-81" value="" style="edgeStyle=entityRelationEdgeStyle;fontSize=12;html=1;endArrow=ERzeroToMany;endFill=1;rounded=0;entryX=0.25;entryY=0;entryDx=0;entryDy=0;exitX=0.5;exitY=1;exitDx=0;exitDy=0;" parent="1" source="91yJGced5cuJ7klKDWTW-78" target="91yJGced5cuJ7klKDWTW-71" edge="1">
          <mxGeometry width="100" height="100" relative="1" as="geometry">
            <mxPoint x="480" y="340" as="sourcePoint" />
            <mxPoint x="590" y="460" as="targetPoint" />
            <Array as="points">
              <mxPoint x="530" y="410" />
            </Array>
          </mxGeometry>
        </mxCell>
        <mxCell id="91yJGced5cuJ7klKDWTW-82" value="" style="edgeStyle=entityRelationEdgeStyle;fontSize=12;html=1;endArrow=ERoneToMany;startArrow=ERzeroToMany;rounded=0;entryX=0;entryY=0.5;entryDx=0;entryDy=0;exitX=1;exitY=0.5;exitDx=0;exitDy=0;" parent="1" source="91yJGced5cuJ7klKDWTW-6" target="91yJGced5cuJ7klKDWTW-71" edge="1">
          <mxGeometry width="100" height="100" relative="1" as="geometry">
            <mxPoint x="310" y="740" as="sourcePoint" />
            <mxPoint x="410" y="640" as="targetPoint" />
          </mxGeometry>
        </mxCell>
        <mxCell id="91yJGced5cuJ7klKDWTW-83" value="NHU CẦU" style="strokeWidth=2;html=1;shape=mxgraph.flowchart.start_2;whiteSpace=wrap;" parent="1" vertex="1">
          <mxGeometry x="385" y="370" width="70" height="40" as="geometry" />
        </mxCell>
        <mxCell id="91yJGced5cuJ7klKDWTW-85" value="XEMLS" style="strokeWidth=2;html=1;shape=mxgraph.flowchart.start_2;whiteSpace=wrap;" parent="1" vertex="1">
          <mxGeometry x="385" y="320" width="70" height="40" as="geometry" />
        </mxCell>
        <mxCell id="91yJGced5cuJ7klKDWTW-86" value="" style="endArrow=none;html=1;rounded=0;entryX=0;entryY=0.5;entryDx=0;entryDy=0;entryPerimeter=0;exitX=1;exitY=0;exitDx=0;exitDy=0;" parent="1" source="91yJGced5cuJ7klKDWTW-78" target="91yJGced5cuJ7klKDWTW-85" edge="1">
          <mxGeometry width="50" height="50" relative="1" as="geometry">
            <mxPoint x="330" y="390" as="sourcePoint" />
            <mxPoint x="370" y="340" as="targetPoint" />
          </mxGeometry>
        </mxCell>
        <mxCell id="91yJGced5cuJ7klKDWTW-87" value="" style="endArrow=none;html=1;rounded=0;exitX=1;exitY=0.5;exitDx=0;exitDy=0;entryX=0;entryY=0.5;entryDx=0;entryDy=0;entryPerimeter=0;" parent="1" source="91yJGced5cuJ7klKDWTW-78" target="91yJGced5cuJ7klKDWTW-83" edge="1">
          <mxGeometry width="50" height="50" relative="1" as="geometry">
            <mxPoint x="340" y="470" as="sourcePoint" />
            <mxPoint x="390" y="420" as="targetPoint" />
          </mxGeometry>
        </mxCell>
      </root>
    </mxGraphModel>
  </diagram>
</mxfile>
